<svg xmlns="http://www.w3.org/2000/svg" version="1" width="1146" height="1000" viewBox="0 0 1145.9999 1000"><path fill="#fff" fill-opacity="0.5" d="M0 272c37-43 73-82 110-116s68-60 95-77c27-18 52-33 73-43 21-11 37-19 48-22l17-4 24-2c13 0 24 2 35 6 17 7 31 18 42 34 11 17 21 35 29 56 9 20 16 44 22 72l15 77 13 79c5 29 10 53 15 71 21 83 38 142 51 177s27 53 42 53c16 0 38-19 66-55 29-38 60-88 94-152 17-32 26-62 26-91l-2-23c-6-35-23-56-51-65-7-3-15-4-24-4-23 0-51 9-83 26 15-87 59-156 134-209C848 20 906 0 965 0l24 1c68 5 114 35 139 90 12 25 18 55 18 88 0 19-2 40-6 61-12 68-35 137-70 208-34 71-72 133-112 188-41 54-86 106-133 155s-88 87-123 117c-35 29-66 51-91 68-28 16-54 24-79 24-24 0-47-7-69-21s-41-30-56-48-28-37-38-57c-12-25-45-125-98-298-53-174-85-268-96-281l-4-4-14-4c-7-2-15-2-24 0-9 1-21 6-36 14-15 7-32 18-50 32L0 272z"/></svg>