<svg xmlns="http://www.w3.org/2000/svg" version="1" width="835" height="1000" viewBox="-2 0 834.53047 999.89111"><path fill="#fff" fill-opacity="0.5" d="M-2 719c0-34 2-87 6-156 2-34 15-62 37-84 21-21 49-33 84-35 64-3 161-5 291-5 129 0 226 2 291 5 34 2 62 14 84 35 22 22 34 50 37 84 3 58 5 110 5 156 0 47-2 99-5 157-3 34-15 62-37 84-22 21-50 33-84 35-65 3-162 5-291 5-130 0-227-2-291-5-34-2-63-14-84-35-22-22-35-50-37-84-4-70-6-122-6-157zm65-136h59v315h57V583h59v-53H63v53zM126 0h58l36 147h4L259 0h58l-44 143-23 73v152h-57V222l-5-24-9-26-8-24L126 0zm112 856c0 31 11 46 35 46 20 0 40-11 59-34v30h50V627h-50v207c-14 13-24 20-30 20-9 0-14-6-14-18V627h-50v229zm76-556V159c0-22 7-39 21-51 15-12 33-18 55-18 21 0 38 6 51 19 14 13 20 30 20 52v140c0 23-6 41-19 54-13 14-31 20-54 20s-41-7-54-21c-13-13-20-32-20-54zm52 7c0 14 8 22 22 22s22-8 22-24V157c0-6-2-11-7-15-4-4-10-6-15-6-6 0-11 2-15 6-5 3-7 8-7 14v151zm65 591h51v-20c13 16 29 24 49 24 30 0 45-20 45-60V691c0-45-16-68-49-68-16 0-31 8-45 26V530h-51v368zm51-51V677c8-7 15-11 22-11 14 0 21 9 21 27v143c0 16-6 24-18 24-9 0-17-5-25-13zm23-521V97h50v208c0 12 4 18 14 18 8 0 18-7 29-20V97h51v271h-51v-30c-18 23-38 34-59 34-23 0-34-15-34-46zm110 496c0 24 6 45 18 60 13 16 31 24 55 24 51 0 76-28 76-84v-20h-52v29l-3 13c-1 5-3 9-6 11-3 3-8 4-14 4-14 0-22-13-22-39v-51h97v-70c0-24-6-44-18-58s-30-21-55-21c-23 0-41 7-55 22s-21 34-21 57v123zm52-96v-29c0-20 8-30 22-30 15 0 23 10 23 30v29h-45z"/></svg>
